<svg xmlns="http://www.w3.org/2000/svg" viewBox="0 0 230.01 76"><defs><style>.cls-1{fill:#c70019;}</style></defs><title>资源 471</title><g id="图层_2" data-name="图层 2"><g id="图层_1-2" data-name="图层 1"><path class="cls-1" d="M15,26.51c5.2,0,10.39,0,15.59,0h1.92V18.27c-.63,0-1.07-.09-1.52-.09-6.44,0-12.88,0-19.32,0S.75,22.68.7,29.22Q.64,38,.7,46.68c0,6.62,4.5,11.06,11.08,11.08q9.49,0,19,0c.55,0,1.1,0,1.74-.08V49.5H30.42c-5.14,0-10.29,0-15.43,0-3,0-4.46-1.49-4.48-4.49q0-7,0-14.07C10.52,27.89,11.91,26.52,15,26.51Z"/><path class="cls-1" d="M43.44,57.67c.74,0,1.29.09,1.84.09,6.27,0,12.54,0,18.81,0,6.8,0,11.26-4.47,11.27-11.25,0-5.59,0-11.18,0-16.77,0-7.15-4.36-11.54-11.48-11.55-6.16,0-12.32,0-18.47,0-.61,0-1.21.05-1.88.08V26.5H60.87c3.33,0,4.68,1.38,4.68,4.76q0,6.77,0,13.55c0,3.2-1.45,4.65-4.66,4.67-5.08,0-10.17,0-15.25,0h-2.1c0,.75-.1,1.3-.1,1.85C43.43,53.42,43.44,55.49,43.44,57.67Z"/><path class="cls-1" d="M76,5.18H43.27V0H32.67V5.2H0v8.16H76Z"/><path class="cls-1" d="M0,62.55v8.19H32.74V76H43.29c0-1.19.09-2.31,0-3.41-.14-1.48.37-1.93,1.89-1.92,9.61.07,19.21,0,28.82,0H76V62.55Z"/><path class="cls-1" d="M32.6,33.45c-4.18,0-8.17-.06-12.15.07-.49,0-1.32.95-1.37,1.52-.18,1.9-.08,3.82-.07,5.74a1.51,1.51,0,0,0,1.64,1.72c3.66,0,7.32,0,11,0,.33,0,.92-.51.93-.8C32.63,39,32.6,36.3,32.6,33.45Z"/><path class="cls-1" d="M55,33.42c-3.39,0-6.78,0-10.17,0a10.73,10.73,0,0,0-1.27.15V42.5H55.27A1.59,1.59,0,0,0,57,40.71c0-1.75,0-3.5,0-5.25C57.07,34,56.38,33.41,55,33.42Z"/><path d="M166.66,40.6c7.56.18,15,.31,22.44.57A11.24,11.24,0,0,1,193,42.24c5,2.22,6.34,12.37,2,15.76a24.78,24.78,0,0,1-4.22,2.11l7,10.6c-3.39,0-6.5,0-9.61,0-.37,0-.81-.54-1.07-.93-2.53-3.8-8.33-11.46-8.33-11.46V55.52s3.83,0,5.56,0c3.69-.13,5-1.54,4.78-5.19-.12-2.41-1.17-3.8-3.57-3.94-3.47-.19-7,0-10.64,0V70.63h-8.19Z"/><path d="M162.6,70.73c-3.37,0-6.3,0-9.24,0a2.18,2.18,0,0,1-1.43-.91c-2.52-3.75-8.39-11.32-8.39-11.32V55.52s3.08,0,4.41,0c.74,0,1.47,0,2.2-.1,2.51-.27,3.68-1.52,3.73-3.93.08-3.41-.82-5-3.53-5.12-3.48-.22-7-.06-10.67-.06V70.63h-8.14V40.87c.43,0,.8-.1,1.18-.1,5.93,0,11.87-.1,17.8.09a26.51,26.51,0,0,1,7.09,1.33,6.28,6.28,0,0,1,4.51,5.8,34.68,34.68,0,0,1,.12,4.56c-.2,4-1.77,5.88-5.65,7-.32.09-.63.22-1.08.38Z"/><path d="M127.05,40.78v5.45h-1.64c-3.67,0-7.34,0-11,0-5.39.06-8.11,2.81-8.13,8.15,0,1,0,2,0,3.05,0,4.85,2.73,7.67,7.62,7.78,3.78.08,7.56,0,11.35,0H127v5.39h-.22S113.55,71.4,107,70c-6.22-1.35-9.06-5-9.1-11.42,0-2,0-4,0-5.93.08-6,3-9.78,8.92-11.06a35.17,35.17,0,0,1,6.71-.74C118,40.7,122.45,40.78,127.05,40.78Z"/><path d="M230,65.26v5.41h-.36s-12.07-.12-18.1-.41a13.68,13.68,0,0,1-5-1.49A9.3,9.3,0,0,1,201,60.31c-.14-2.59-.1-5.19-.07-7.79.09-6,2.94-9.62,8.82-11a33.28,33.28,0,0,1,6.37-.75c4.41-.11,13.22,0,13.22,0H230v5.45c-3.7,0-7.36,0-11,0a21.21,21.21,0,0,0-4.37.37,6.68,6.68,0,0,0-5.39,6.86c0,1.3,0,2.6,0,3.9,0,4.81,2.78,7.72,7.61,7.84,3.84.1,7.68,0,11.53,0Z"/><path d="M202.41,11.09V7.61c1.69,0,6.22,0,6.22,0l1.64-2.46,4.75,0c-.45.9-1,1.53-1.47,2.42h15.93V11H227.7l-16,0s-2.84,4.68-4,6.56h6.36V13.83H219v3.79h10.12v3.44h-10V24.9H230v3.37H219v4.65h-4.8V28.41H202V25H214V21.13H202.89l.05-3.57s2.7-4.27,3.92-6.47Z"/><path d="M160.7,32.58H132.6v-27h23.79c3.2,0,4.3,1.09,4.31,4.24q0,10.59,0,21.18Zm-4.4-3.1c0-6.53,0-12.85,0-19.17,0-1.35-.84-1.69-2-1.68-4.63,0-9.26,0-13.9,0H137V29.48Z"/><path d="M126,14.68c0-4-1.19-5.17-5.12-5.17h-6.42V5.24h-5v4.3H98.06V25.9h11.38v7h5.07V25.81H126Zm-16.66,7.74H103V12.89h6.37ZM121,22.33h-6.48V12.81a36.27,36.27,0,0,1,5,.09A2.29,2.29,0,0,1,121,14.59C121.13,17.11,121,19.65,121,22.33Z"/><path d="M195.29,17.06c0-6.61-.63-7.55-7.47-7.55-1.33,0-2.66,0-4.17,0V5.13h-4.56V9.26l-11.72.25V26H178.9v7h4.89V25.81h11.49C195.28,22.79,195.2,19.92,195.29,17.06Zm-16.47,5.36h-6.51V12.8c1.91,0,3.86,0,5.81,0h.67s0,.47,0,1.2C178.84,16.78,178.82,19.54,178.82,22.42Zm11.59-.08h-6.59V12.8a32.18,32.18,0,0,1,4.93.08,2.47,2.47,0,0,1,1.59,1.73C190.52,17.13,190.41,19.67,190.41,22.34Z"/><path d="M148.89,13.73V17.2h5.05v2.89h-5v4.15h2.47c0-.61,0-1.7,0-1.7h3.34l.06,4.62H138.48V24.42h5.8v-4.3h-5V17.31h5V13.84h-5.82V11.07h16.28v2.66Z"/></g></g></svg>