<svg xmlns="http://www.w3.org/2000/svg" viewBox="0 0 204 204"><defs><style>.cls-1{fill:#c70019;}</style></defs><title>资源 470</title><g id="图层_2" data-name="图层 2"><g id="图层_1-2" data-name="图层 1"><path class="cls-1" d="M102,9.92A92.08,92.08,0,1,1,9.92,102,92.19,92.19,0,0,1,102,9.92M102,0A102,102,0,1,0,204,102,102,102,0,0,0,102,0Z"/><path class="cls-1" d="M74.15,88.1c6.29,0,12.58,0,18.87,0h2.32v-10c-.76,0-1.3-.1-1.84-.1-7.79,0-15.59,0-23.38,0S56.9,83.46,56.85,91.37q-.08,10.56,0,21.13c0,8,5.45,13.38,13.42,13.41q11.47,0,23,0c.66,0,1.33-.06,2.11-.1v-9.9H92.81c-6.23,0-12.45,0-18.67,0-3.66,0-5.4-1.8-5.42-5.43q-.06-8.52,0-17C68.72,89.76,70.41,88.12,74.15,88.1Z"/><path class="cls-1" d="M108.56,125.8c.89,0,1.56.1,2.22.11,7.59,0,15.18,0,22.76,0,8.23,0,13.63-5.4,13.65-13.61q0-10.14,0-20.3c0-8.65-5.28-14-13.9-14-7.45,0-14.9,0-22.35,0-.73,0-1.46.06-2.26.1v10H111c6.22,0,12.44,0,18.66,0,4,0,5.66,1.67,5.67,5.75q0,8.2,0,16.4c0,3.88-1.75,5.63-5.64,5.65-6.15,0-12.3,0-18.45,0h-2.53c-.06.91-.13,1.57-.13,2.24C108.55,120.66,108.56,123.17,108.56,125.8Z"/><path class="cls-1" d="M148,62.29H108.35V56H95.53v6.3H56v9.87h92Z"/><path class="cls-1" d="M56,131.71v9.9H95.62V148h12.77c0-1.45.1-2.8,0-4.13-.17-1.79.45-2.33,2.28-2.32,11.63.08,23.25,0,34.87,0H148v-9.86Z"/><path class="cls-1" d="M95.45,96.49c-5.07,0-9.89-.06-14.7.09-.6,0-1.6,1.15-1.67,1.84-.21,2.29-.09,4.62-.08,6.94,0,1.29.62,2.08,2,2.08,4.43,0,8.86,0,13.29,0,.4,0,1.12-.62,1.13-1C95.48,103.19,95.45,99.94,95.45,96.49Z"/><path class="cls-1" d="M122.52,96.46c-4.1,0-8.2,0-12.3,0a13.2,13.2,0,0,0-1.54.18v10.8h14.2a1.91,1.91,0,0,0,2.13-2.17c0-2.12,0-4.24,0-6.36C125.05,97.19,124.22,96.45,122.52,96.46Z"/></g></g></svg>